# OBJ written from C:\Mallinnuksia\Unity Projects\Pelisedät2\Space endless runner Proof of Concept\Assets\Meshes\AsteroidD.obj
# Units	meters

o AsteroidD
v -0.436649 -0.98658 0.471698
v 0.978284 0.950461 0.0440127
v 0.777878 -1.0812 0.523227
v -0.988287 -0.833772 -0.306662
v -0.693786 0.397905 -0.763619
v 0.00585882 -0.198417 -1.13737
v 1.13809 -0.73646 -0.0904399
v 0.352413 0.981261 0.858216
v 0.545915 1.22032 -0.395643
v 0.117677 -0.794656 -1.02345
v -0.21014 -1.1084 0.743589
v 1.01204 0.390115 -0.203815
v -0.784875 0.901133 -0.02011
v 0.883167 -0.417214 0.424426
v 1.01261 0.0405552 0.67438
v -0.899398 0.0804458 -0.832403
v -0.253673 1.05453 0.540486
v 0.646223 -1.25347 -0.143175
v 0.0598375 -0.755676 1.103
v -1.20309 0.0215964 -0.273825
v 0.463635 1.46126 0.310999
v -0.408715 -0.392137 -0.87951
v 0.361852 -0.476722 1.07564
v 0.857787 -0.0418751 -0.944903
v 0.093683 0.0952814 1.13737
v -0.0579542 -1.38357 -0.544114
v 0.00319781 1.36195 -0.0232727
v -0.815442 -0.932223 0.0530468
v 1.21953 0.0582467 -0.345436
v -0.803088 0.116157 0.882017
v 0.981387 0.605591 -0.0356706
v -1.13134 0.0773713 0.582168
v 0.597226 0.48603 -0.818276
v -0.63342 0.433807 0.786723
v 0.734676 -0.434814 -0.821784
v 0.2782 1.36278 0.622846
v -0.406072 -0.480028 0.885229
v 1.1256 -0.320686 -0.506876
v -0.940092 0.596416 0.0470526
v 0.0542354 -1.48313 0.401355
v 1.11645 0.354743 0.166551
v -0.404354 0.466734 0.777377
v 0.121606 0.252119 -1.04372
v 0.717731 -0.708779 0.906509
v 0.620313 1.04521 0.669691
v 0.444804 -0.194383 -1.04808
v -0.689826 -0.60126 0.698764
v 0.471132 -0.711896 -0.95261
v 0.740791 -0.117737 1.0024
v -1.21953 -0.167511 0.313252
v 1.02207 -0.705732 0.368431
v -0.0362859 0.952448 0.879858
v -0.44981 -1.164 -0.227654
v 0.876432 -0.464791 0.737925
v -0.691025 0.820681 -0.340746
v -0.241653 -0.912231 -0.771741
v -0.529552 -0.0643404 0.962088
v 0.37332 1.48313 -0.0520335
v 1.05039 0.0713699 -0.502782
v -0.279376 -1.36464 0.163271
v -0.290097 -0.0393691 -0.986104
v 1.16411 -0.0858127 -0.00182983
v 0.083245 1.45142 0.416991
v -0.673495 -0.460302 -0.746248
v 1.19169 -0.386525 0.0720666
v -0.0422062 0.384196 1.07946
v 0.245719 -1.39753 -0.292036
v 0.823914 0.591644 0.534017
v -0.923873 -0.58208 0.426675
v -0.170936 0.542379 -0.863657
v 0.364279 0.460582 1.05792
v 0.555799 -1.33651 0.196177
v 0.0758 0.944089 -0.585418
v -0.119352 -0.183491 1.08991
v -0.663226 0.691691 0.428455
v 0.88153 1.16234 -0.0453972
v 0.666251 -0.899112 -0.680833
v -0.682803 0.530328 0.436123
v 0.831734 0.876921 -0.364075
v -1.20929 0.245467 -0.0463112
v 0.00697457 0.582929 0.957972
v 0.415226 0.891798 -0.612898
v 0.582908 -0.98085 1.06711
v -0.884948 -0.198566 0.793644
v -1.13319 0.254752 -0.345637
v 0.0813083 -0.242465 0.951939
v 0.232449 -1.26556 -0.594116
v 0.961027 0.3768 -0.544605
v 0.46883 -0.179623 1.07535
v -1.0543 -0.495748 -0.333632
v 0.805549 0.521003 -0.41312
v -0.157712 -0.489261 1.01677
v -0.386799 1.14638 -0.194916
v 0.937006 -0.596432 -0.635307
v 0.0263924 -1.21939 0.798801
v 0.0512865 1.34329 -0.257746
v 1.03187 0.0205313 -0.686472
v 0.72299 0.218725 0.969167
v -0.449107 0.770788 -0.578858
vn 0.244869 0.488323 -0.837604
vn 0.178644 0.503303 -0.845442
vn -0.114314 0.595272 -0.795351
vn -0.432912 0.433278 0.790479
vn -0.408959 0.498429 0.764409
vn -0.334231 0.377276 0.863685
vn -0.109373 -0.940853 0.320677
vn -0.59949 -0.627626 0.496686
vn -0.486574 -0.870083 0.0787499
vn 0.714144 0.464441 0.52373
vn 0.90138 0.0442231 0.430765
vn 0.894081 0.317814 0.315615
vn -0.99669 -0.0753582 -0.0305122
vn -0.961368 -0.0247972 -0.274148
vn -0.866253 -0.255465 -0.429352
vn -0.830608 0.555638 0.0368395
vn -0.944531 0.328381 -0.00518544
vn -0.906337 0.366439 0.210418
vn -0.475081 -0.346937 -0.808661
vn -0.631595 0.135983 -0.76328
vn -0.346231 0.0471524 -0.936963
vn 0.0957392 -0.991559 -0.0874384
vn 0.462221 -0.884568 0.0623858
vn 0.766414 0.460197 -0.44814
vn 0.713973 0.446883 -0.539016
vn 0.868968 0.129423 -0.477644
vn 0.823734 0.0432904 -0.565322
vn 0.859648 0.117748 -0.497133
vn 0.649322 -0.29732 -0.699987
vn 0.972949 0.204889 0.106725
vn 0.540239 0.47094 -0.697393
vn 0.594954 0.658323 -0.46113
vn 0.296069 0.647215 -0.702464
vn 0.078981 0.915773 -0.393856
vn -0.626504 0.548129 0.554118
vn -0.59675 -0.506412 0.622443
vn -0.472931 -0.344794 0.810835
vn 0.532762 -0.809703 0.24606
vn 0.976769 0.207281 0.0543861
vn 0.91889 0.338215 -0.203106
vn 0.903085 -0.405519 -0.141393
vn 0.651998 -0.520104 -0.551716
vn 0.692399 -0.330559 -0.641339
vn -0.637908 0.67357 0.373332
vn -0.542574 0.839175 0.037407
vn -0.650595 0.655485 0.383491
vn -0.453526 0.781778 -0.427946
vn -0.24245 0.822863 -0.51392
vn 0.920223 -0.0832949 0.382428
vn 0.854793 -0.405083 0.324401
vn 0.929874 -0.0921962 -0.356137
vn 0.992068 0.103408 -0.0714649
vn 0.197871 -0.145106 0.969428
vn 0.712205 -0.0734281 0.69812
vn 0.851486 -0.157056 0.500305
vn -0.298387 0.321893 0.898527
vn -0.312544 0.00317103 0.949898
vn -0.353171 -0.0782062 0.932284
vn -0.164814 0.470966 -0.866618
vn -0.438522 0.539941 -0.718444
vn -0.604724 0.618483 -0.501785
vn -0.357138 0.894509 0.268897
vn -0.101258 0.424 0.899984
vn 0.722061 -0.668946 -0.176462
vn 0.0737297 0.141074 0.98725
vn -0.0200628 0.119052 0.992685
vn 0.568942 0.00175543 0.822376
vn 0.120006 -0.788334 0.60343
vn -0.410536 -0.438372 0.799556
vn -0.25026 -0.679833 0.689345
vn -0.847878 0.439171 -0.297039
vn 0.864229 0.485937 0.130282
vn 0.637649 0.626525 0.448185
vn -0.101166 0.757358 0.645115
vn -0.110793 -0.0411426 -0.992992
vn -0.0414752 -0.489121 -0.871229
vn -0.460058 -0.367387 -0.808315
vn 0.478987 -0.635118 -0.605968
vn 0.449387 -0.753501 -0.479882
vn 0.436948 -0.799342 -0.412467
vn 0.468135 -0.0464662 0.882434
vn 0.178969 -0.204301 0.962409
vn 0.323664 0.165688 0.931552
vn 0.403777 -0.297359 -0.865183
vn 0.305854 -0.0775268 -0.948917
vn 0.0183336 0.305879 -0.951894
vn 0.455648 -0.357176 0.815359
vn 0.062274 -0.159976 0.985155
vn -0.604427 -0.441185 -0.663343
vn -0.613997 -0.515642 -0.597596
vn -0.678092 -0.660002 0.323402
vn -0.734877 -0.517672 0.438147
vn -0.718245 -0.688946 0.0973494
vn -0.60122 -0.476695 -0.641324
vn 0.923243 0.26478 -0.278412
vn 0.72208 0.60155 -0.34167
vn -0.467692 -0.493182 0.733509
vn -0.327766 0.641254 0.693803
vn -0.766346 0.22162 0.602991
vn 0.964233 -0.0657907 0.256763
vn 0.931994 -0.0320899 0.36105
vn -0.594822 -0.288312 0.750376
vn -0.789665 -0.448678 0.41847
vn 0.281362 0.0391543 -0.958802
vn -0.466706 0.171947 0.867537
vn 0.528329 -0.274447 -0.803459
vn 0.344942 -0.740041 -0.577368
vn 0.47195 0.603272 0.642904
vn 0.074006 0.995757 -0.0546924
vn -0.517708 -0.251464 0.817768
vn 0.0961272 0.113576 0.988868
vn -0.711706 0.683745 -0.161144
vn -0.719014 0.383926 0.579327
vn 0.948851 0.291669 0.120879
vn 0.438758 0.408703 0.800283
vn 0.562702 0.247369 0.788781
vn -0.532554 -0.824557 -0.191028
vn -0.330111 -0.9407 -0.0781643
vn -0.418539 0.904741 -0.0791782
vn -0.180074 -0.714352 -0.67622
vn 0.207784 0.971818 0.111337
vn 0.532741 0.842314 -0.0818147
vn 0.845293 0.319592 -0.428183
vn -0.138646 0.131554 0.981566
vn -0.00199473 0.28118 0.959653
vn -0.341199 0.651673 -0.677426
vn 0.570813 -0.819649 -0.048457
vn -0.73406 0.449839 0.508725
vt 0.761628 0.465489
vt 0.665344 0.448124
vt 0.807152 0.418805
vt 0.345479 0.908412
vt 0.426326 0.82983
vt 0.413636 0.918029
vt 0.839234 0.820203
vt 0.727814 0.76613
vt 0.822124 0.747704
vt 0.411739 0.591071
vt 0.230109 0.516699
vt 0.338491 0.532183
vt 0.913484 0.0204101
vt 0.848071 0.114301
vt 0.760425 0.0557421
vt 0.957064 0.201083
vt 0.904364 0.126115
vt 0.989219 0.0384827
vt 0.69177 0.133906
vt 0.774462 0.189755
vt 0.683821 0.249583
vt 0.953263 0.757264
vt 0.922985 0.867946
vt 0.38818 0.33516
vt 0.411419 0.248531
vt 0.445979 0.372872
vt 0.295036 0.207894
vt 0.289056 0.265434
vt 0.203764 0.195873
vt 0.427234 0.454278
vt 0.739746 0.555045
vt 0.805509 0.609836
vt 0.815139 0.520658
vt 0.900874 0.539165
vt 0.392056 0.749295
vt 0.740429 0.834078
vt 0.619293 0.828304
vt 0.899532 0.957565
vt 0.370451 0.41984
vt 0.341383 0.376311
vt 0.128916 0.347681
vt 0.098661 0.209529
vt 0.168755 0.246121
vt 0.303967 0.843769
vt 0.17519 0.828532
vt 0.289984 0.697421
vt 0.921229 0.372965
vt 0.894256 0.461901
vt 0.105566 0.432675
vt 0.0189776 0.449037
vt 0.21774 0.29119
vt 0.238878 0.390888
vt 0.160962 0.62943
vt 0.0730789 0.545714
vt 0.128631 0.519299
vt 0.457805 0.915051
vt 0.537451 0.820497
vt 0.565615 0.899045
vt 0.755337 0.335377
vt 0.799139 0.249933
vt 0.898395 0.288561
vt 0.222959 0.897824
vt 0.330581 0.978146
vt 0.00720187 0.304841
vt 0.099584 0.63117
vt 0.0356481 0.675067
vt 0.0137623 0.568785
vt 0.787512 0.990777
vt 0.686017 0.924569
vt 0.771464 0.870218
vt 0.864219 0.158632
vt 0.473544 0.457166
vt 0.515557 0.570819
vt 0.245634 0.947691
vt 0.624826 0.272642
vt 0.540319 0.207323
vt 0.658387 0.180315
vt 0.427729 0.244803
vt 0.340849 0.155955
vt 0.403357 0.0978156
vt 0.185116 0.584021
vt 0.202752 0.708238
vt 0.285946 0.665712
vt 0.498639 0.260111
vt 0.569467 0.331475
vt 0.673375 0.341946
vt 0.138886 0.74125
vt 0.13121 0.696454
vt 0.570066 0.130033
vt 0.578059 0.0112639
vt 0.728712 0.660271
vt 0.636602 0.693159
vt 0.735862 0.583111
vt 0.705822 0.00994648
vt 0.27542 0.337345
vt 0.349741 0.3098
vt 0.634779 0.76106
vt 0.443119 0.790408
vt 0.500725 0.682478
vt 0.182794 0.390974
vt 0.150993 0.466805
vt 0.555403 0.74401
vt 0.557985 0.63469
vt 0.5427 0.412231
vt 0.503895 0.767459
vt 0.485447 0.337732
vt 0.452661 0.133526
vt 0.484699 0.636817
vt 0.124479 0.885345
vt 0.626268 0.88272
vt 0.0760153 0.72862
vt 0.964085 0.275746
vt 0.363 0.758397
vt 0.308561 0.441256
vt 0.395929 0.652675
vt 0.247579 0.595013
vt 0.829363 0.6627
vt 0.93927 0.679975
vt 0.939904 0.467986
vt 0.481973 0.0774734
vt 0.167429 0.942473
vt 0.0544743 0.973202
vt 0.292407 0.301855
vt 0.51225 0.94178
vt 0.436651 0.989353
vt 0.840334 0.321242
vt 0.987633 0.845939
vt 0.35142 0.670521
mtllib AsteroidD.mtl
usemtl LP
g Group41251
f 82/1/1 33/2/2 73/3/3
f 52/4/4 42/5/5 81/6/6
f 40/7/7 1/8/8 60/9/9
f 45/10/10 15/11/11 68/12/12
f 50/13/13 20/14/14 90/15/15
f 39/16/16 80/17/17 32/18/18
f 64/19/19 16/20/20 61/21/21
f 67/22/22 72/23/23 40/7/7
f 91/24/24 33/25/25 79/26/26
f 24/27/27 97/28/28 35/29/29
f 45/10/10 68/12/12 2/30/30
f 79/31/31 33/2/2 82/1/1
f 76/32/32 9/33/33 58/34/34
f 42/5/5 52/4/4 78/35/35
f 64/19/19 90/15/15 16/20/20
f 40/7/7 60/9/9 67/22/22
f 11/36/36 37/37/37 1/8/8
f 72/23/23 3/38/38 40/7/7
f 31/39/39 12/40/40 2/30/30
f 7/41/41 77/42/42 94/43/43
f 17/44/44 27/45/45 13/46/46
f 73/3/3 93/47/47 96/48/48
f 51/49/49 3/50/50 7/41/41
f 7/41/41 38/51/51 62/52/52
f 89/53/53 44/54/54 54/55/55
f 66/56/56 57/57/57 74/58/58
f 70/59/59 61/21/21 16/20/20
f 5/60/60 16/20/20 55/61/61
f 63/62/62 27/45/45 17/44/44
f 81/6/6 8/63/63 52/4/4
f 7/41/41 18/64/64 77/42/42
f 18/64/64 7/41/41 3/50/50
f 23/65/65 19/66/66 83/67/67
f 83/68/68 19/69/69 95/70/70
f 20/14/14 16/20/20 90/15/15
f 85/71/71 55/61/61 16/20/20
f 45/10/10 76/72/72 21/73/73
f 8/63/63 36/74/74 52/4/4
f 6/75/75 10/76/76 22/77/77
f 77/78/78 18/79/79 67/80/80
f 89/53/53 54/55/55 49/81/81
f 25/82/82 49/81/81 71/83/83
f 48/84/84 6/75/75 46/85/85
f 33/2/2 43/86/86 70/59/59
f 49/81/81 25/82/82 89/53/53
f 74/87/87 86/88/88 25/82/82
f 22/77/77 10/76/76 56/89/89
f 22/77/77 56/89/89 53/90/90
f 96/48/48 58/34/34 9/33/33
f 73/3/3 96/48/48 9/33/33
f 28/91/91 69/92/92 4/93/93
f 53/90/90 4/94/94 22/77/77
f 62/52/52 29/95/95 12/40/40
f 33/25/25 88/96/96 97/28/28
f 47/97/97 37/37/37 57/57/57
f 34/98/98 78/35/35 32/99/99
f 65/100/100 51/49/49 7/41/41
f 14/101/101 65/100/100 15/11/11
f 84/102/102 32/99/99 69/92/92
f 4/93/93 69/92/92 50/103/103
f 24/104/104 43/86/86 33/2/2
f 33/25/25 97/28/28 24/27/27
f 30/105/105 34/98/98 32/99/99
f 66/56/56 42/5/5 57/57/57
f 48/84/84 46/85/85 35/106/106
f 10/76/76 77/78/78 87/107/107
f 45/10/10 21/73/73 36/108/108
f 63/62/62 58/109/109 27/45/45
f 92/110/110 11/36/36 19/69/69
f 23/65/65 92/111/111 19/66/66
f 38/51/51 29/95/95 62/52/52
f 97/28/28 94/43/43 35/29/29
f 39/16/16 13/112/112 85/71/71
f 17/44/44 13/46/46 75/113/113
f 1/8/8 40/7/7 11/36/36
f 95/70/70 40/7/7 83/68/68
f 41/114/114 68/12/12 15/11/11
f 62/52/52 12/40/40 31/39/39
f 78/35/35 34/98/98 42/5/5
f 57/57/57 42/5/5 34/98/98
f 6/75/75 43/86/86 46/85/85
f 61/21/21 70/59/59 43/86/86
f 44/54/54 3/50/50 54/55/55
f 40/7/7 3/38/38 83/68/68
f 8/115/115 45/10/10 36/108/108
f 98/116/116 45/10/10 8/115/115
f 46/85/85 24/104/104 35/106/106
f 24/104/104 46/85/85 43/86/86
f 47/97/97 1/8/8 37/37/37
f 69/92/92 28/91/91 1/8/8
f 6/75/75 48/84/84 10/76/76
f 48/84/84 77/78/78 10/76/76
f 49/81/81 54/55/55 15/11/11
f 45/10/10 98/116/116 15/11/11
f 32/18/18 80/17/17 50/13/13
f 50/103/103 69/92/92 32/99/99
f 51/49/49 65/100/100 14/101/101
f 54/55/55 14/101/101 15/11/11
f 52/4/4 63/62/62 17/44/44
f 52/4/4 17/44/44 75/113/113
f 60/9/9 4/93/93 53/117/117
f 60/9/9 53/117/117 26/118/118
f 14/101/101 54/55/55 51/49/49
f 51/49/49 54/55/55 3/50/50
f 13/112/112 55/61/61 85/71/71
f 93/47/47 13/112/112 27/119/119
f 10/76/76 26/120/120 56/89/89
f 26/120/120 53/90/90 56/89/89
f 47/97/97 57/57/57 84/102/102
f 34/98/98 30/105/105 57/57/57
f 63/62/62 21/121/121 58/109/109
f 58/109/109 21/121/121 76/122/122
f 59/123/123 12/40/40 29/95/95
f 38/51/51 59/123/123 29/95/95
f 28/91/91 60/9/9 1/8/8
f 60/9/9 28/91/91 4/93/93
f 61/21/21 6/75/75 22/77/77
f 43/86/86 6/75/75 61/21/21
f 31/39/39 41/114/114 62/52/52
f 41/114/114 15/11/11 65/100/100
f 52/4/4 36/74/74 63/62/62
f 63/62/62 36/74/74 21/121/121
f 64/19/19 61/21/21 22/77/77
f 64/19/19 22/77/77 4/94/94
f 65/100/100 7/41/41 62/52/52
f 65/100/100 62/52/52 41/114/114
f 25/124/124 71/125/125 66/56/56
f 66/56/56 74/58/58 25/124/124
f 87/107/107 77/78/78 67/80/80
f 26/118/118 67/22/22 60/9/9
f 2/30/30 68/12/12 31/39/39
f 68/12/12 41/114/114 31/39/39
f 69/92/92 1/8/8 47/97/97
f 47/97/97 84/102/102 69/92/92
f 5/60/60 70/59/59 16/20/20
f 73/3/3 99/126/126 93/47/47
f 71/83/83 98/116/116 8/115/115
f 71/125/125 8/63/63 66/56/56
f 67/22/22 18/127/127 72/23/23
f 72/23/23 18/127/127 3/38/38
f 70/59/59 73/3/3 33/2/2
f 99/126/126 73/3/3 70/59/59
f 37/37/37 74/58/58 57/57/57
f 11/36/36 92/110/110 37/37/37
f 13/46/46 39/128/128 75/113/113
f 78/35/35 39/128/128 32/99/99
f 76/72/72 45/10/10 2/30/30
f 2/30/30 12/40/40 79/26/26
f 35/29/29 94/43/43 77/42/42
f 35/106/106 77/78/78 48/84/84
f 78/35/35 75/113/113 39/128/128
f 75/113/113 78/35/35 52/4/4
f 79/26/26 76/72/72 2/30/30
f 9/33/33 76/32/32 79/31/31
f 80/17/17 20/14/14 50/13/13
f 39/16/16 85/71/71 80/17/17
f 66/56/56 8/63/63 81/6/6
f 66/56/56 81/6/6 42/5/5
f 82/1/1 73/3/3 9/33/33
f 82/1/1 9/33/33 79/31/31
f 83/67/67 44/54/54 23/65/65
f 44/54/54 83/67/67 3/50/50
f 32/99/99 84/102/102 30/105/105
f 57/57/57 30/105/105 84/102/102
f 80/17/17 85/71/71 20/14/14
f 16/20/20 20/14/14 85/71/71
f 23/65/65 86/88/88 92/111/111
f 25/82/82 86/88/88 89/53/53
f 87/107/107 67/80/80 26/120/120
f 10/76/76 87/107/107 26/120/120
f 88/96/96 12/40/40 97/28/28
f 33/25/25 91/24/24 88/96/96
f 89/53/53 23/65/65 44/54/54
f 86/88/88 23/65/65 89/53/53
f 90/15/15 64/19/19 4/94/94
f 90/15/15 4/94/94 50/13/13
f 12/40/40 88/96/96 91/24/24
f 79/26/26 12/40/40 91/24/24
f 37/37/37 92/110/110 74/58/58
f 86/88/88 74/87/87 92/111/111
f 55/61/61 93/47/47 99/126/126
f 13/112/112 93/47/47 55/61/61
f 94/43/43 97/28/28 38/51/51
f 7/41/41 94/43/43 38/51/51
f 95/70/70 11/36/36 40/7/7
f 11/36/36 95/70/70 19/69/69
f 27/119/119 58/34/34 96/48/48
f 27/119/119 96/48/48 93/47/47
f 59/123/123 38/51/51 97/28/28
f 59/123/123 97/28/28 12/40/40
f 49/81/81 98/116/116 71/83/83
f 98/116/116 49/81/81 15/11/11
f 5/60/60 55/61/61 99/126/126
f 70/59/59 5/60/60 99/126/126
