# OBJ written from C:\Mallinnuksia\UnityRenderScene\New Unity Project\Assets\Meshes\AsteroidB.obj
# Units	meters

o AsteroidB
v -0.446929 0.451343 0.56284
v 0.864495 0.56178 -0.0994941
v 0.909483 -0.258062 -0.478999
v 0.327431 -0.925084 -0.750796
v -0.944129 0.12695 0.917461
v 0.492973 0.535746 1.1111
v 0.0338122 -1.24746 -0.117952
v -1.16892 -0.100411 0.125763
v 0.836304 -0.157837 0.621283
v -0.695804 0.413495 -0.439195
v -0.747408 -0.859015 0.967493
v 0.722789 0.435499 -0.554048
v -0.568763 -0.8037 -0.468732
v -1.31887 -0.149008 0.702749
v 0.425069 1.17978 0.0229498
v -0.178191 -1.15396 0.438146
v -0.172703 0.425928 1.06284
v 0.615771 -1.05966 -0.44397
v -0.705698 0.795524 0.483174
v 0.80855 -1.10772 0.159768
v -0.105884 1.18281 0.38021
v 0.269011 -1.11095 0.20691
v 0.0520061 0.28642 -0.727737
v 0.536235 -0.339932 1.1301
v 0.0395872 -0.596206 -1.27993
v 0.0955572 1.00702 0.892181
v -0.668053 -0.827478 -0.0855277
v 1.15142 0.865587 -0.149784
v -0.770694 -1.02687 0.166123
v 1.31255 0.954032 0.309423
v -0.0805867 -0.713334 1.03439
v -0.174366 0.326208 -0.470244
v 1.09911 -0.585053 0.251941
v 1.03191 1.24746 -0.0534424
v -0.376409 0.834767 0.524718
v 0.878738 -0.706648 0.620157
v 0.0734269 0.744566 -0.65595
v -1.22131 -0.657687 0.822225
v 1.05564 0.394495 0.923669
v -0.182438 0.893017 -0.380532
v -1.29123 -0.586332 0.486485
v 0.774582 -0.0870268 1.00201
v -0.358503 1.07853 0.129747
v -0.829315 -0.149549 1.17523
v 0.963416 -0.22136 0.00368872
v -0.414108 -0.0465948 -0.645131
v 1.24082 0.518756 0.71897
v 0.0317229 -0.0969945 1.27993
v -0.850698 -0.159704 -0.217014
v 1.19123 0.0378757 0.0805229
v 0.139466 0.279644 1.02128
v -0.745315 -0.439027 0.00237472
v 1.15169 -0.0423379 0.411011
v -0.897899 0.357669 0.488685
v -0.665214 -0.495052 -0.599229
v 1.21419 0.483247 0.172224
v -0.238545 -0.0162644 1.13024
v 0.0533786 -1.00456 -0.882327
v -0.931966 -0.98776 0.561518
v 0.860102 0.707111 1.02835
v -0.210486 -0.553937 -1.0907
v -0.783797 0.748717 0.136144
v -0.437522 -0.578467 1.18415
v 1.06156 0.159532 -0.377619
v -0.542878 0.702012 -0.426119
v 0.231669 -0.786372 0.452467
v 0.319103 -0.13279 -0.97196
v 0.876459 1.23106 0.418323
v -0.146599 -0.97792 0.638944
v 0.424705 -0.572192 -0.978265
v 0.576863 -0.852604 0.64406
v -0.239404 0.73789 0.844035
v -0.329361 -0.933707 -0.101424
v 0.287093 -0.773399 0.903304
v 0.194849 1.15972 0.658891
v -1.09181 0.22605 0.19053
v -0.905547 -0.64019 1.14188
v 0.0255255 0.858479 -0.0802955
v 0.461162 0.0397469 1.18281
v -1.32347 -0.376647 0.851939
v 0.225206 0.944838 -0.403112
v 0.841947 -0.747426 -0.128139
v -0.38352 0.303227 0.954011
v -0.506499 -0.882461 0.806807
v -0.564996 -0.575382 -0.291369
v 1.32347 0.457328 0.423578
v 0.826288 -0.539889 0.867405
v 0.441362 1.06829 0.342461
v -0.387349 -0.773553 -0.748235
v 0.636102 -0.826879 0.83567
v 0.253348 1.14255 0.200045
v -0.0600423 -0.154442 -0.929551
v 0.143692 -0.380815 1.20714
v 0.941067 0.78936 -0.37057
v -0.310172 -0.412827 -0.835148
v -0.102979 -0.34532 1.13122
v 1.10602 0.229431 -0.0898796
v 0.230738 0.834747 1.06705
v -0.384349 -0.28711 1.07593
vn -0.367918 0.661805 0.653185
vn -0.67673 0.525521 0.515621
vn -0.303661 0.208092 0.929778
vn -0.813104 -0.230222 -0.534659
vn -0.800195 -0.208485 -0.562336
vn -0.744296 -0.32351 -0.584265
vn 0.6179 0.116903 -0.777517
vn 0.841839 0.27135 -0.466557
vn 0.831745 0.177664 -0.525962
vn -0.0513803 0.53244 -0.844907
vn -0.284125 0.429367 -0.857273
vn 0.202968 0.334081 -0.920431
vn 0.0437905 -0.97936 0.197324
vn 0.0222728 -0.815928 0.577724
vn 0.279896 -0.800211 0.530397
vn 0.0643579 -0.364397 0.929017
vn 0.220232 -0.477993 0.850306
vn 0.041634 -0.342766 0.938498
vn 0.0198997 0.552561 0.833235
vn 0.369788 0.766724 0.524777
vn -0.200414 0.818945 0.53774
vn 0.908354 -0.214008 0.359297
vn 0.761271 -0.478324 0.437804
vn 0.899643 -0.31705 0.300203
vn 0.219449 -0.906743 -0.360083
vn 0.138259 -0.944697 -0.297374
vn -0.119652 -0.990258 -0.0712261
vn -0.86404 -0.145845 -0.481834
vn -0.958907 -0.24848 -0.136947
vn -0.895986 0.406974 -0.177709
vn -0.961337 0.2575 -0.0975921
vn -0.797159 0.53334 0.282996
vn -0.530028 0.335656 -0.77872
vn 0.397361 0.361578 0.843425
vn 0.568614 0.113211 0.814777
vn 0.586451 0.606211 0.537201
vn -0.0379897 0.0596032 0.997499
vn -0.0909358 0.245271 0.96518
vn 0.17012 0.0805706 0.982124
vn -0.765969 0.613262 -0.192876
vn -0.611032 0.249674 -0.751201
vn 0.00103519 0.979316 -0.202335
vn -0.186439 0.942474 -0.27746
vn -0.225324 0.90567 -0.359153
vn -0.114009 -0.826132 0.551823
vn -0.700762 -0.605529 0.377184
vn -0.394494 -0.898244 0.193731
vn -0.208573 -0.136745 0.9684
vn -0.188451 0.104298 0.976529
vn 0.820967 0.40126 -0.406206
vn -0.481712 -0.871625 -0.0906814
vn -0.0401221 -0.951975 -0.303535
vn -0.683865 0.204831 -0.700266
vn -0.522585 0.675347 0.520396
vn -0.549409 0.518971 0.654843
vn -0.550355 0.66186 0.50897
vn -0.177482 0.231096 0.956606
vn -0.627063 0.282132 0.726081
vn -0.330663 -0.0127628 0.943663
vn -0.0397538 0.88851 -0.457133
vn -0.121937 0.880913 -0.4573
vn -0.297667 0.953235 -0.0523195
vn 0.561227 0.799855 0.212736
vn -0.0501189 -0.967602 0.247457
vn 0.138396 -0.821596 0.553016
vn -0.836101 -0.0572046 -0.545585
vn -0.699728 -0.39287 -0.596686
vn -0.4751 0.530528 0.702012
vn 0.0287459 0.0801677 0.996367
vn -0.194019 0.130621 0.972263
vn 0.642894 -0.449428 -0.620243
vn 0.841197 -0.281001 -0.46198
vn 0.829887 -0.320916 -0.4564
vn 0.860823 -0.329157 -0.388123
vn 0.902705 -0.269674 -0.335262
vn -0.219087 0.327017 0.919272
vn 0.186824 -0.923404 0.335295
vn 0.961004 -0.276531 -0.00147801
vn -0.47673 0.50277 -0.721076
vn 0.880086 -0.196534 0.43223
vn 0.927189 -0.127603 0.352191
vn -0.111671 0.926269 -0.359939
vn 0.417646 -0.295588 0.859185
vn 0.462752 -0.387383 0.797367
vn 0.633105 -0.220922 0.74187
vn -0.6728 -0.415399 -0.612196
vn -0.516931 -0.0191264 -0.855814
vn -0.515496 -0.683452 -0.516873
vn 0.653843 -0.284295 -0.701189
vn -0.405462 -0.880345 -0.246157
vn 0.810491 -0.17229 -0.559839
vn 0.82614 -0.297874 -0.478293
vn -0.132985 0.432199 -0.891919
vn 0.212873 0.528259 -0.821966
vn -0.32356 -0.88477 -0.335396
vn 0.0672091 -0.837869 0.541718
vn 0.978592 -0.166067 -0.121575
vn 0.825571 -0.136488 -0.547543
vn 0.978355 0.137089 -0.155012
vn 0.375754 0.601444 0.705035
vn 0.0961842 -0.734184 0.672103
vn 0.106887 0.0971453 0.989514
vn -0.363467 0.2285 -0.90315
vn -0.421936 0.467727 -0.776661
vn 0.891086 -0.432495 -0.137528
vn 0.747766 0.372668 -0.549512
vn -0.176937 0.38666 0.90509
vn -0.546363 0.559824 0.622965
vn -0.421842 0.779977 0.462261
vn 0.434986 -0.851903 0.291629
vn 0.0111886 -0.933003 0.359694
vn -0.877999 0.0897567 -0.470171
vn 0.959326 -0.205349 0.193714
vn 0.98566 0.0723654 0.152442
vn -0.997009 -0.0272455 -0.0723296
vn -0.815335 -0.5782 -0.0302202
vn 0.0196368 0.983361 -0.180597
vn -0.57034 0.678259 0.463333
vn 0.87645 -0.116763 -0.46712
vn 0.954589 -0.174912 -0.241174
vn -0.90335 -0.339661 -0.261896
vn -0.79451 0.57844 0.184828
vn 0.503532 -0.575438 -0.644458
vn -0.745159 0.14724 -0.650429
vn 0.0964107 -0.897607 0.430124
vn -0.261113 0.964355 -0.0428958
vn -0.038438 0.99752 0.0589611
vn 0.0752217 0.984193 -0.16033
vn 0.608693 -0.232492 -0.758577
vn -0.289742 -0.861336 -0.417313
vn 0.462764 -0.394457 0.793885
vn -0.39935 -0.59352 0.698752
vn -0.8388 -0.349077 0.417804
vn 0.697242 -0.51697 0.496585
vn 0.165729 -0.982862 0.0807178
vt 0.73607 0.637079
vt 0.797926 0.685392
vt 0.768971 0.753027
vt 0.878549 0.458747
vt 0.798105 0.300307
vt 0.864577 0.320828
vt 0.38915 0.893097
vt 0.233555 0.897339
vt 0.228109 0.811856
vt 0.73602 0.0269297
vt 0.675108 0.109015
vt 0.573989 0.0158616
vt 0.0267518 0.363173
vt 0.0311757 0.287692
vt 0.118488 0.308681
vt 0.698757 0.971204
vt 0.620047 0.972561
vt 0.67507 0.895337
vt 0.704071 0.671993
vt 0.602911 0.521863
vt 0.733014 0.581471
vt 0.0314027 0.709004
vt 0.0255757 0.653142
vt 0.149428 0.682387
vt 0.34012 0.497428
vt 0.261053 0.522934
vt 0.242009 0.399162
vt 0.852153 0.21211
vt 0.886086 0.259659
vt 0.724319 0.394402
vt 0.794282 0.499573
vt 0.671882 0.442136
vt 0.763443 0.182803
vt 0.591296 0.669988
vt 0.53075 0.705903
vt 0.502669 0.536737
vt 0.649087 0.716293
vt 0.70718 0.770861
vt 0.634524 0.806186
vt 0.614858 0.357946
vt 0.691185 0.262188
vt 0.430877 0.217557
vt 0.511788 0.216632
vt 0.518221 0.310049
vt 0.101913 0.182269
vt 0.149651 0.0984806
vt 0.184126 0.182552
vt 0.724452 0.903632
vt 0.706331 0.850687
vt 0.179019 0.787915
vt 0.361183 0.308036
vt 0.377358 0.45178
vt 0.827032 0.136009
vt 0.901753 0.837288
vt 0.868005 0.71745
vt 0.988836 0.872521
vt 0.86129 0.893383
vt 0.975452 0.925901
vt 0.873432 0.981916
vt 0.383268 0.064015
vt 0.531181 0.148938
vt 0.435419 0.166349
vt 0.549527 0.445971
vt 0.167098 0.320879
vt 0.167677 0.416633
vt 0.937742 0.299964
vt 0.974942 0.351192
vt 0.811954 0.776989
vt 0.777634 0.899748
vt 0.764955 0.840448
vt 0.468093 0.748587
vt 0.302586 0.778795
vt 0.422259 0.678748
vt 0.241367 0.717462
vt 0.330096 0.67055
vt 0.946534 0.749981
vt 0.142296 0.512924
vt 0.245482 0.637224
vt 0.633992 0.251525
vt 0.138933 0.610106
vt 0.226626 0.55784
vt 0.573968 0.213863
vt 0.604245 0.871517
vt 0.530478 0.902952
vt 0.563725 0.812297
vt 0.900072 0.152684
vt 0.855681 0.0276086
vt 0.952868 0.0717348
vt 0.433245 0.820697
vt 0.278105 0.320013
vt 0.153194 0.854221
vt 0.138676 0.916413
vt 0.595113 0.144193
vt 0.484414 0.0224997
vt 0.248622 0.227825
vt 0.109721 0.234853
vt 0.075087 0.746715
vt 0.0880814 0.880652
vt 0.0174167 0.822675
vt 0.500345 0.655146
vt 0.0216801 0.210839
vt 0.779851 0.960124
vt 0.678861 0.171447
vt 0.767697 0.0928883
vt 0.343798 0.585157
vt 0.0277078 0.926592
vt 0.917289 0.658476
vt 0.852896 0.645134
vt 0.878051 0.561172
vt 0.0291791 0.497479
vt 0.0561346 0.441761
vt 0.787211 0.389338
vt 0.0848796 0.564243
vt 0.172872 0.534614
vt 0.837019 0.527379
vt 0.214554 0.0865339
vt 0.443321 0.294263
vt 0.811044 0.56589
vt 0.106006 0.786929
vt 0.1789 0.738193
vt 0.917744 0.215142
vt 0.580995 0.415173
vt 0.524024 0.766217
vt 0.850796 0.08642
vt 0.100642 0.387974
vt 0.325683 0.140879
vt 0.388404 0.203793
vt 0.364193 0.276877
vt 0.506372 0.872438
vt 0.303261 0.260338
vt 0.551604 0.964757
vt 0.0713463 0.132116
vt 0.140728 0.0438721
vt 0.490761 0.942933
vt 0.0187377 0.435666
mtllib AsteroidB.mtl
usemtl LP
g Group17420
f 26/1/1 72/2/2 17/3/3
f 41/4/4 49/5/5 52/6/6
f 67/7/7 12/8/8 64/9/9
f 67/10/10 23/11/11 12/12/12
f 74/13/13 31/14/14 69/15/15
f 31/16/16 74/17/17 93/18/18
f 98/19/19 68/20/20 75/21/21
f 47/22/22 39/23/23 53/24/24
f 4/25/25 18/26/26 7/27/27
f 49/5/5 55/28/28 85/29/29
f 76/30/30 14/31/31 54/32/32
f 49/5/5 46/33/33 55/28/28
f 60/34/34 39/35/35 30/36/36
f 6/37/37 51/38/38 79/39/39
f 62/40/40 10/41/41 76/30/30
f 91/42/42 78/43/43 43/44/44
f 11/45/45 38/46/46 59/47/47
f 96/48/48 93/18/18 48/49/49
f 64/9/9 12/8/8 97/50/50
f 60/34/34 30/36/36 68/20/20
f 7/27/27 13/51/51 58/52/52
f 55/28/28 46/33/33 95/53/53
f 5/54/54 1/55/55 14/56/56
f 44/57/57 80/58/58 77/59/59
f 34/60/60 81/61/61 15/62/62
f 30/36/36 34/63/63 68/20/20
f 16/64/64 7/27/27 22/65/65
f 41/4/4 27/66/66 29/67/67
f 1/55/55 5/54/54 83/68/68
f 99/69/69 57/70/70 44/57/57
f 4/71/71 3/72/72 18/73/73
f 45/74/74 82/75/75 3/72/72
f 14/56/56 1/55/55 54/76/76
f 1/55/55 83/68/68 72/2/2
f 7/27/27 18/26/26 20/77/77
f 82/75/75 45/74/74 33/78/78
f 26/1/1 75/21/21 72/2/2
f 65/79/79 62/40/40 43/44/44
f 20/77/77 22/65/65 7/27/27
f 9/80/80 36/81/81 33/78/78
f 40/82/82 65/79/79 43/44/44
f 49/5/5 10/41/41 46/33/33
f 24/83/83 87/84/84 42/85/85
f 60/34/34 79/39/39 39/35/35
f 89/86/86 25/87/87 58/88/88
f 4/71/71 70/89/89 3/72/72
f 98/19/19 17/3/3 6/37/37
f 60/34/34 68/20/20 98/19/19
f 16/64/64 73/90/90 7/27/27
f 73/90/90 13/51/51 7/27/27
f 2/91/91 12/8/8 94/92/92
f 37/93/93 94/94/94 12/12/12
f 29/95/95 73/90/90 16/64/64
f 84/96/96 11/45/45 59/47/47
f 86/97/97 28/98/98 30/99/99
f 30/36/36 39/35/35 47/100/100
f 84/96/96 63/101/101 11/45/45
f 63/102/102 44/57/57 77/59/59
f 32/103/103 65/79/79 37/93/93
f 23/11/11 92/104/104 46/33/33
f 33/78/78 36/81/81 20/105/105
f 33/78/78 20/105/105 82/75/75
f 34/60/60 94/94/94 81/61/61
f 28/98/98 34/106/106 30/99/99
f 19/107/107 35/108/108 43/109/109
f 1/55/55 35/108/108 19/107/107
f 36/110/110 71/111/111 20/77/77
f 87/84/84 24/83/83 74/17/17
f 37/93/93 23/11/11 32/103/103
f 37/93/93 12/12/12 23/11/11
f 5/54/54 14/56/56 80/58/58
f 14/31/31 8/112/112 41/4/4
f 53/24/24 39/23/23 9/80/80
f 9/80/80 42/113/113 87/114/114
f 37/93/93 65/79/79 40/82/82
f 94/94/94 37/93/93 81/61/61
f 14/31/31 41/4/4 80/115/115
f 59/47/47 38/46/46 41/116/116
f 39/23/23 42/113/113 9/80/80
f 24/83/83 42/85/85 39/35/35
f 91/42/42 43/44/44 21/117/117
f 43/109/109 35/108/108 21/118/118
f 5/54/54 80/58/58 44/57/57
f 83/68/68 5/54/54 44/57/57
f 97/50/50 12/8/8 2/91/91
f 2/91/91 28/98/98 56/119/119
f 32/103/103 23/11/11 46/33/33
f 10/41/41 32/103/103 46/33/33
f 97/50/50 2/91/91 56/119/119
f 50/120/120 56/119/119 53/24/24
f 57/70/70 96/48/48 48/49/49
f 51/38/38 48/49/49 79/39/39
f 76/30/30 10/41/41 49/5/5
f 8/112/112 49/5/5 41/4/4
f 45/74/74 50/120/120 33/78/78
f 45/74/74 3/72/72 50/120/120
f 6/37/37 17/3/3 51/38/38
f 57/70/70 48/49/49 51/38/38
f 27/66/66 41/4/4 52/6/6
f 85/29/29 13/121/121 27/66/66
f 50/120/120 53/24/24 33/78/78
f 9/80/80 33/78/78 53/24/24
f 76/30/30 54/32/32 19/122/122
f 19/107/107 54/76/76 1/55/55
f 55/28/28 95/53/53 89/86/86
f 13/121/121 85/29/29 55/28/28
f 28/98/98 86/97/97 56/119/119
f 86/97/97 53/24/24 56/119/119
f 44/57/57 57/70/70 83/68/68
f 17/3/3 57/70/70 51/38/38
f 58/52/52 4/25/25 7/27/27
f 58/123/123 70/89/89 4/71/71
f 59/47/47 29/95/95 16/64/64
f 41/116/116 29/95/95 59/47/47
f 6/37/37 60/34/34 98/19/19
f 6/37/37 79/39/39 60/34/34
f 61/124/124 25/87/87 89/86/86
f 92/104/104 23/11/11 67/10/10
f 76/30/30 19/122/122 62/40/40
f 19/122/122 43/44/44 62/40/40
f 63/101/101 84/96/96 31/14/14
f 44/57/57 63/102/102 99/69/69
f 3/72/72 67/7/7 64/9/9
f 3/72/72 64/9/9 50/120/120
f 10/41/41 65/79/79 32/103/103
f 62/40/40 65/79/79 10/41/41
f 69/15/15 22/65/65 66/125/125
f 71/111/111 22/65/65 20/77/77
f 67/10/10 25/87/87 92/104/104
f 3/72/72 70/89/89 67/7/7
f 68/126/126 88/127/127 75/128/128
f 34/60/60 15/62/62 68/126/126
f 69/15/15 16/64/64 22/65/65
f 16/64/64 84/96/96 59/47/47
f 70/89/89 25/129/129 67/7/7
f 70/89/89 58/123/123 25/129/129
f 22/65/65 71/111/111 66/125/125
f 69/15/15 66/125/125 74/13/13
f 72/2/2 35/108/108 1/55/55
f 21/118/118 35/108/108 72/2/2
f 29/95/95 27/130/130 73/90/90
f 13/51/51 73/90/90 27/130/130
f 66/125/125 71/111/111 74/13/13
f 87/84/84 74/17/17 90/131/131
f 21/118/118 72/2/2 75/21/21
f 75/128/128 91/42/42 21/117/117
f 49/5/5 8/112/112 76/30/30
f 76/30/30 8/112/112 14/31/31
f 63/101/101 77/132/132 11/45/45
f 11/45/45 77/132/132 38/46/46
f 43/44/44 78/43/43 40/82/82
f 81/61/61 78/43/43 15/62/62
f 79/39/39 48/49/49 93/18/18
f 39/35/35 79/39/39 24/83/83
f 80/133/133 38/46/46 77/132/132
f 80/133/133 41/116/116 38/46/46
f 81/61/61 37/93/93 40/82/82
f 81/61/61 40/82/82 78/43/43
f 3/72/72 82/75/75 18/73/73
f 18/73/73 82/75/75 20/105/105
f 17/3/3 83/68/68 57/70/70
f 17/3/3 72/2/2 83/68/68
f 16/64/64 69/15/15 84/96/96
f 31/14/14 84/96/96 69/15/15
f 52/6/6 85/29/29 27/66/66
f 52/6/6 49/5/5 85/29/29
f 30/99/99 47/22/22 86/97/97
f 47/22/22 53/24/24 86/97/97
f 87/114/114 36/81/81 9/80/80
f 87/84/84 90/131/131 36/134/134
f 15/62/62 88/127/127 68/126/126
f 88/127/127 91/42/42 75/128/128
f 89/86/86 58/88/88 13/121/121
f 55/28/28 89/86/86 13/121/121
f 71/111/111 90/135/135 74/13/13
f 90/135/135 71/111/111 36/110/110
f 78/43/43 91/42/42 15/62/62
f 15/62/62 91/42/42 88/127/127
f 61/124/124 92/104/104 25/87/87
f 95/53/53 61/124/124 89/86/86
f 93/18/18 24/83/83 79/39/39
f 93/18/18 74/17/17 24/83/83
f 2/91/91 94/92/92 28/98/98
f 34/106/106 28/98/98 94/92/92
f 95/53/53 92/104/104 61/124/124
f 92/104/104 95/53/53 46/33/33
f 96/48/48 63/102/102 31/16/16
f 31/16/16 93/18/18 96/48/48
f 64/9/9 97/50/50 50/120/120
f 50/120/120 97/50/50 56/119/119
f 26/1/1 17/3/3 98/19/19
f 98/19/19 75/21/21 26/1/1
f 57/70/70 99/69/69 96/48/48
f 96/48/48 99/69/69 63/102/102
