# OBJ written from E:\3D\CollZone\FlowerParticle.obj
# Units	meters

o Mesh
v -2.35 -0.89 -0.0200002
v -1.445 1.89 -0.0200002
v -2.38419e-008 -2.58 -0.0200002
v -1.155 2.76 -0.0200002
v -2.38 1.89 -0.0200002
v -3.27 0.06 -0.0200002
v -3.06 1.366 -0.0200002
v -3.246 0.996 -0.0200002
v -2.61 -1.75 -0.0200002
v -0.705 -3.125 -0.0200002
v -2.235 -2.715 -0.0200002
v -1.685 -3.11 -0.0200002
v -0.482 3.277 -0.0200002
v -0.207 3.347 -0.0200002
v 2.35 -0.89 -0.0200002
v 1.445 1.89 -0.0200002
v 1.155 2.76 -0.0200002
v 2.38 1.89 -0.0200002
v 3.27 0.06 -0.0200002
v 3.06 1.366 -0.0200002
v 3.246 0.996 -0.0200002
v 2.61 -1.75 -0.0200002
v 0.705 -3.125 -0.0200002
v 2.235 -2.715 -0.0200002
v 1.685 -3.11 -0.0200002
v 0.482 3.277 -0.0200002
v 0.207 3.347 -0.0200002
v -1.445 1.89 0.03
v -2.35 -0.89 0.03
v -2.38419e-008 -2.58 0.03
v -1.155 2.76 0.03
v -2.38 1.89 0.03
v -3.27 0.06 0.03
v -3.06 1.366 0.03
v -3.246 0.996 0.03
v -2.61 -1.75 0.03
v -0.705 -3.125 0.03
v -2.235 -2.715 0.03
v -1.685 -3.11 0.03
v -0.482 3.277 0.03
v -0.207 3.347 0.03
v 1.445 1.89 0.03
v 2.35 -0.89 0.03
v 1.155 2.76 0.03
v 3.27 0.06 0.03
v 2.38 1.89 0.03
v 3.246 0.996 0.03
v 3.06 1.366 0.03
v 0.705 -3.125 0.03
v 2.61 -1.75 0.03
v 1.685 -3.11 0.03
v 2.235 -2.715 0.03
v 0.482 3.277 0.03
v 0.207 3.347 0.03
v 0 -1.35 -0.015
v -0.954594 -0.954594 -0.015
v -0.675 -0.954594 0.2565
v 0 -0.954594 0.362746
v 0.675 -0.954594 0.2565
v 0.954594 -0.954594 -0.015
v -1.35 -8.26637e-017 -0.015
v -0.954594 -8.26637e-017 0.362746
v 0 -8.26637e-017 0.513
v 0.954594 -8.26637e-017 0.362746
v 1.35 -8.26637e-017 -0.015
v -0.954594 0.954594 -0.015
v -0.675 0.954594 0.2565
v 0 0.954594 0.362746
v 0.675 0.954594 0.2565
v 0.954594 0.954594 -0.015
v 0 1.35 -0.015
vn -0.969962 0.243256 0
vn -0.771228 0.636559 0
vn -0.313679 -0.949529 0
vn -0.790417 -0.612569 0
vn -0.436901 0.89951 0
vn -0.124304 0.992244 0
vn 0.771228 0.636559 0
vn 0.969962 0.243256 0
vn 0.790417 -0.612569 0
vn 0.313679 -0.949529 0
vn 0.124304 0.992244 0
vn 0.436901 0.89951 0
vn -0.356033 -0.85954 0.366648
vn -0.12312 -0.771928 0.623673
vn -0.241057 -0.794358 0.557572
vn -0.227025 -0.619559 0.751403
vn 0 -0.818495 0.574514
vn 0 -0.444129 0.895963
vn 0.227025 -0.619559 0.751403
vn 0.241057 -0.794358 0.557572
vn 0.12312 -0.771928 0.623673
vn 0.356033 -0.85954 0.366648
vn -0.693715 0.00112322 0.720249
vn -0.664124 -0.275089 0.695173
vn -0.428288 -0.224539 0.875301
vn -0.532238 -0.0542158 0.844857
vn -0.342845 -0.0970891 0.934361
vn -0.332857 -0.398734 0.854527
vn 0 -1.14494e-008 1
vn 0.333121 -0.397742 0.854887
vn 0.342992 -0.0960276 0.934417
vn 0.532352 -0.054601 0.84476
vn 0.428566 -0.222974 0.875565
vn 0.664706 -0.272128 0.695782
vn 0.693716 0.000504612 0.720249
vn -0.669336 0.277248 0.689291
vn -0.532193 0.0557565 0.844785
vn -0.431564 0.225955 0.873325
vn -0.335011 0.399852 0.853162
vn -0.345109 0.0979717 0.933435
vn 0 0.444129 0.895963
vn 0.345319 0.0964824 0.933513
vn 0.335385 0.39846 0.853666
vn 0.43196 0.22376 0.873695
vn 0.532332 0.0552934 0.844728
vn 0.670164 0.273099 0.690143
vn -0.356033 0.85954 0.366648
vn -0.241057 0.794358 0.557572
vn -0.12312 0.771928 0.623673
vn -0.227025 0.619559 0.751403
vn 0 0.818495 0.574514
vn 0.227025 0.619559 0.751403
vn 0.241057 0.794358 0.557572
vn 0.356033 0.85954 0.366648
vn 0.12312 0.771928 0.623673
vn 0.948683 0.316228 0
vn 0.814605 0.580017 0
vn -0.948683 0.316228 0
vn -0.814605 0.580017 0
vn 0 0 1
vn 0.32241 0.9466 0
vn 0 1 0
vn 0.999671 0.0256325 0
vn 0 0 -1
vn -0.32241 0.9466 0
vn -0.999671 0.0256325 0
vn -0.718358 -0.695673 0
vn 0.315888 -0.948796 0
vn -0.999258 -0.0385166 0
vn -0.957211 0.289389 0
vn 0.999258 -0.0385166 0
vn 0.957211 0.289389 0
vn -0.315888 -0.948796 0
vn 0.718358 -0.695673 0
vn -0.611607 -0.791162 0
vn 0.611607 -0.791162 0
vt 0.504104 0.14334
vt 0.504104 0.153157
vt 0.497687 0.153157
vt 0.497687 0.14334
vt 0.204586 0.276703
vt 0.189796 0.276703
vt 0.189796 0.270286
vt 0.204586 0.270286
vt 0.291674 0.276703
vt 0.283642 0.276703
vt 0.283642 0.270286
vt 0.291674 0.270286
vt 0.505387 0.153157
vt 0.505387 0.14334
vt 0.511804 0.14334
vt 0.511804 0.153157
vt 0.188294 0.276703
vt 0.173505 0.276703
vt 0.173505 0.270286
vt 0.188294 0.270286
vt 0.271549 0.276703
vt 0.263516 0.276703
vt 0.263516 0.270286
vt 0.271549 0.270286
vt 0.566043 0.782293
vt 0.63875 0.752177
vt 0.587339 0.782293
vt 0.63875 0.782293
vt 0.690161 0.782293
vt 0.711457 0.782293
vt 0.535927 0.855
vt 0.566043 0.855
vt 0.63875 0.855
vt 0.711457 0.855
vt 0.741573 0.855
vt 0.566043 0.927707
vt 0.587339 0.927707
vt 0.63875 0.927707
vt 0.690161 0.927707
vt 0.711457 0.927707
vt 0.63875 0.957823
vt 0.505387 0.216478
vt 0.511804 0.216478
vt 0.511804 0.238824
vt 0.505387 0.238824
vt 0.504104 0.216478
vt 0.504104 0.238824
vt 0.497687 0.238824
vt 0.497687 0.216478
vt 0.285438 0.229748
vt 0.309966 0.180597
vt 0.309304 0.205737
vt 0.304178 0.215674
vt 0.316474 0.276703
vt 0.316474 0.270286
vt 0.342305 0.270286
vt 0.342305 0.276703
vt 0.505387 0.118504
vt 0.511804 0.118504
vt 0.339053 0.229748
vt 0.320312 0.215674
vt 0.315186 0.205737
vt 0.314525 0.180597
vt 0.154253 0.229748
vt 0.135512 0.215674
vt 0.130386 0.205737
vt 0.129725 0.180597
vt 0.369616 0.276703
vt 0.369616 0.270286
vt 0.504104 0.118504
vt 0.497687 0.118504
vt 0.470238 0.229748
vt 0.494766 0.180597
vt 0.494104 0.205737
vt 0.488978 0.215674
vt 0.504104 0.0932975
vt 0.497687 0.0932975
vt 0.343786 0.276703
vt 0.343786 0.270286
vt 0.200416 0.0950534
vt 0.147914 0.131984
vt 0.158249 0.106065
vt 0.173407 0.0954562
vt 0.230937 0.276703
vt 0.230937 0.270286
vt 0.505387 0.190302
vt 0.511804 0.190302
vt 0.511804 0.214996
vt 0.505387 0.214996
vt 0.505387 0.162593
vt 0.511804 0.162593
vt 0.424075 0.0950534
vt 0.451083 0.0954562
vt 0.466241 0.106065
vt 0.476576 0.131984
vt 0.497687 0.190302
vt 0.497687 0.162593
vt 0.504104 0.162593
vt 0.504104 0.190302
vt 0.504104 0.214996
vt 0.497687 0.214996
vt 0.239275 0.0950534
vt 0.266283 0.0954562
vt 0.281441 0.106065
vt 0.291776 0.131984
vt 0.385216 0.0950534
vt 0.332714 0.131984
vt 0.343049 0.106065
vt 0.358207 0.0954562
vt 0.147153 0.276703
vt 0.147153 0.270286
vt 0.404645 0.109691
vt 0.33988 0.155082
vt 0.219845 0.109691
vt 0.284611 0.155082
vt 0.233129 0.267001
vt 0.22555 0.268881
vt 0.21414 0.268881
vt 0.206561 0.267001
vt 0.259669 0.229748
vt 0.251677 0.253115
vt 0.188014 0.253115
vt 0.180021 0.229748
vt 0.444469 0.229748
vt 0.436477 0.253115
vt 0.372814 0.253115
vt 0.364821 0.229748
vt 0.417929 0.267001
vt 0.41035 0.268881
vt 0.39894 0.268881
vt 0.391361 0.267001
vt 0.505387 0.0932975
vt 0.511804 0.0932975
vt 0.15508 0.155082
vt 0.469411 0.155082
vt 0.128196 0.276703
vt 0.128196 0.270286
mtllib FlowerParticle.mtl
usemtl Default
g Default
f 56/25/13 55/26/14 57/27/15
f 57/27/16 55/26/17 58/28/18
f 58/28/18 55/26/17 59/29/19
f 59/29/20 55/26/21 60/30/22
f 61/31/23 56/25/24 57/27/25 62/32/26
f 62/32/27 57/27/28 58/28/18 63/33/29
f 63/33/29 58/28/18 59/29/30 64/34/31
f 64/34/32 59/29/33 60/30/34 65/35/35
f 66/36/36 61/31/23 62/32/37 67/37/38
f 67/37/39 62/32/40 63/33/29 68/38/41
f 68/38/41 63/33/29 64/34/42 69/39/43
f 69/39/44 64/34/45 65/35/35 70/40/46
f 66/36/47 67/37/48 71/41/49
f 67/37/50 68/38/41 71/41/51
f 68/38/41 69/39/52 71/41/51
f 69/39/53 70/40/54 71/41/55
usemtl IchBinEinGeist
f 35/1/1 34/2/2 7/3/2 8/4/1
f 39/5/3 38/6/4 11/7/4 12/8/3
f 40/9/5 41/10/6 14/11/6 13/12/5
f 48/13/7 47/14/8 21/15/8 20/16/7
f 52/17/9 51/18/10 25/19/10 24/20/9
f 54/21/11 53/22/12 26/23/12 27/24/11
f 42/42/56 16/43/56 17/44/57 44/45/57
f 28/46/58 31/47/59 4/48/59 2/49/58
f 26/23/12 53/22/12 44/45/57 17/44/57
f 40/9/5 13/12/5 4/48/59 31/47/59
f 46/50/60 45/51/60 47/52/60 48/53/60
f 46/54/61 48/13/7 20/16/7 18/55/61
f 46/54/61 18/55/61 16/56/62 42/57/62
f 45/58/63 19/59/63 21/15/8 47/14/8
f 18/60/64 20/61/64 21/62/64 19/63/64
f 32/64/60 34/65/60 35/66/60 33/67/60
f 32/68/65 5/69/65 7/3/2 34/2/2
f 33/70/66 35/1/1 8/4/1 6/71/66
f 5/72/64 6/73/64 8/74/64 7/75/64
f 29/76/67 33/70/67 6/71/67 1/77/67
f 5/69/65 32/68/65 28/78/62 2/79/62
f 37/80/60 36/81/60 38/82/60 39/83/60
f 37/84/68 39/5/3 12/8/3 10/85/68
f 9/86/69 36/87/69 29/88/70 1/89/70
f 36/87/69 9/86/69 11/90/4 38/91/4
f 10/92/64 12/93/64 11/94/64 9/95/64
f 50/96/71 52/97/9 24/98/9 22/99/71
f 50/96/71 22/99/71 15/100/72 43/101/72
f 49/102/60 51/103/60 52/104/60 50/105/60
f 23/106/64 22/107/64 24/108/64 25/109/64
f 49/110/73 23/111/73 25/19/10 51/18/10
f 3/112/64 15/113/64 22/107/64 23/106/64
f 30/114/60 49/102/60 50/105/60 43/115/60
f 41/10/6 54/21/11 27/24/11 14/11/6
f 53/116/60 54/117/60 41/118/60 40/119/60
f 42/120/60 44/121/60 31/122/60 28/123/60
f 2/124/64 4/125/64 17/126/64 16/127/64
f 13/128/64 14/129/64 27/130/64 26/131/64
f 44/121/60 53/116/60 40/119/60 31/122/60
f 4/125/64 13/128/64 26/131/64 17/126/64
f 19/59/74 45/58/74 43/132/74 15/133/74
f 43/115/60 45/51/60 46/50/60 42/120/60
f 29/134/60 28/123/60 32/64/60 33/67/60
f 28/123/60 29/134/60 30/114/60 43/115/60
f 42/120/60 28/123/60 43/115/60
f 15/113/64 16/127/64 18/60/64 19/63/64
f 1/135/64 6/73/64 5/72/64 2/124/64
f 2/124/64 16/127/64 1/135/64
f 30/114/60 29/134/60 36/81/60 37/80/60
f 3/112/64 10/92/64 9/95/64 1/135/64
f 49/110/73 30/136/75 3/137/75 23/111/73
f 10/85/68 3/137/76 30/136/76 37/84/68
f 16/127/64 15/113/64 3/112/64 1/135/64
